# xmcd
#
# Track frame offsets:
#	150
#	18266
#	32276
#	42386
#	55692
#	69049
#	88563
#	110053
#	121409
#	134646
#	150014
#	167433
#
# Disc length: 2473 seconds
#
# Revision: 0
# Processed by: cddbd v1.5.2PL0 Copyright (c) Steve Scherf et al.
# Submitted via: dBpowerAMP V4.0
#
DISCID=8709a70c
DTITLE=Blue Giant - Blue Giant
DYEAR=2010
DGENRE=Indie Country
TTITLE0=Clean the Clock
TTITLE1=Blue Sunshine
TTITLE2=Wesley
TTITLE3=Lonely Girl
TTITLE4=Target Heart
TTITLE5=When Will the Sun Shine?
TTITLE6=Go On
TTITLE7=Run Rabbit Run
TTITLE8=Gone for Good (Duet with Corin Tucker)
TTITLE9=The Game
TTITLE10=The Void Above the Sky
TTITLE11=Reasons to Cry
EXTD=
EXTT0=
EXTT1=
EXTT2=
EXTT3=
EXTT4=
EXTT5=
EXTT6=
EXTT7=
EXTT8=
EXTT9=
EXTT10=
EXTT11=
PLAYORDER=
